<svg width="22" height="28" viewBox="0 0 22 28" fill="none" xmlns="http://www.w3.org/2000/svg">
<g id="logo">
<g id="Vector">
<path d="M18.1207 14.8779C18.1338 13.8557 18.4053 12.8536 18.9099 11.9646C19.4145 11.0756 20.1357 10.3286 21.0065 9.79329C20.4533 9.00323 19.7235 8.35304 18.8751 7.89437C18.0266 7.4357 17.083 7.18117 16.1189 7.15101C14.0626 6.93516 12.069 8.38152 11.0211 8.38152C9.95292 8.38152 8.33952 7.17244 6.60216 7.20819C5.47838 7.24449 4.38317 7.57128 3.42324 8.15671C2.46331 8.74213 1.6714 9.56623 1.12466 10.5487C-1.2437 14.6492 0.522879 20.6754 2.79157 23.9899C3.92664 25.6129 5.25322 27.4259 6.98902 27.3616C8.6876 27.2911 9.32199 26.2785 11.3723 26.2785C13.4036 26.2785 13.9988 27.3616 15.7698 27.3207C17.5925 27.2911 18.7408 25.6905 19.8361 24.0521C20.6516 22.8957 21.2792 21.6175 21.6955 20.2651C20.6366 19.8172 19.733 19.0675 19.0973 18.1095C18.4616 17.1515 18.1219 16.0276 18.1207 14.8779Z" fill="white"/>
<path d="M14.7755 4.97114C15.7693 3.77813 16.2589 2.24472 16.1404 0.696554C14.6221 0.856021 13.2196 1.58166 12.2124 2.7289C11.7199 3.28935 11.3428 3.94137 11.1024 4.64768C10.8621 5.35398 10.7634 6.10073 10.8118 6.84523C11.5712 6.85305 12.3225 6.68845 13.0091 6.36382C13.6957 6.0392 14.2997 5.56302 14.7755 4.97114Z" fill="white"/>
</g>
</g>
</svg>
