<svg width="83" height="28" viewBox="0 0 83 28" fill="none" xmlns="http://www.w3.org/2000/svg">
<g id="text">
<g id="Vector">
<path d="M6.23683 0.97964C6.66122 0.949881 7.08708 1.01253 7.4837 1.16306C7.88031 1.3136 8.2378 1.54827 8.53036 1.85015C8.82292 2.15203 9.04326 2.51359 9.17551 2.90876C9.30775 3.30392 9.34858 3.72284 9.29507 4.13529C9.29507 6.16423 8.17284 7.3305 6.23683 7.3305H3.88916V0.97964H6.23683ZM4.89864 6.43235H6.12407C6.42732 6.45006 6.73081 6.40148 7.01242 6.29013C7.29404 6.17878 7.54671 6.00748 7.75203 5.78868C7.95735 5.56989 8.11015 5.30911 8.19932 5.02533C8.28849 4.74155 8.31178 4.44192 8.26749 4.14824C8.30857 3.85572 8.28292 3.55794 8.19238 3.27624C8.10184 2.99454 7.94866 2.7359 7.74381 2.51885C7.53895 2.30179 7.2875 2.1317 7.00747 2.02075C6.72745 1.90981 6.42577 1.86076 6.12407 1.87712H4.89864V6.43235Z" fill="white"/>
<path d="M10.4354 4.93196C10.4046 4.61699 10.4414 4.29921 10.5436 3.99899C10.6459 3.69876 10.8112 3.42273 11.029 3.18859C11.2467 2.95445 11.5122 2.76737 11.8083 2.63936C12.1045 2.51134 12.4247 2.44521 12.7485 2.44521C13.0723 2.44521 13.3925 2.51134 13.6886 2.63936C13.9848 2.76737 14.2502 2.95445 14.468 3.18859C14.6858 3.42273 14.8511 3.69876 14.9533 3.99899C15.0556 4.29921 15.0924 4.61699 15.0616 4.93196C15.093 5.24724 15.0566 5.56547 14.9546 5.86618C14.8527 6.16688 14.6875 6.44342 14.4696 6.67802C14.2518 6.91262 13.9861 7.10009 13.6897 7.22839C13.3933 7.35668 13.0727 7.42295 12.7485 7.42295C12.4243 7.42295 12.1037 7.35668 11.8073 7.22839C11.5109 7.10009 11.2452 6.91262 11.0273 6.67802C10.8095 6.44342 10.6443 6.16688 10.5424 5.86618C10.4404 5.56547 10.404 5.24724 10.4354 4.93196ZM14.0659 4.93196C14.0659 3.89307 13.5883 3.28553 12.7501 3.28553C11.9087 3.28553 11.4353 3.89307 11.4353 4.93197C11.4353 5.97918 11.9087 6.58203 12.7501 6.58203C13.5883 6.58202 14.0659 5.97501 14.0659 4.93196Z" fill="white"/>
<path d="M21.2111 7.33031H20.2069L19.1932 3.80046H19.1166L18.1071 7.33031H17.1125L15.7605 2.53758H16.7423L17.621 6.19472H17.6933L18.7017 2.53758H19.6304L20.6388 6.19472H20.7154L21.5898 2.53758H22.5578L21.2111 7.33031Z" fill="white"/>
<path d="M23.6949 2.53756H24.6268V3.29893H24.6991C24.8218 3.02547 25.0288 2.79624 25.2911 2.64318C25.5535 2.49012 25.8582 2.42086 26.1628 2.44505C26.4014 2.42751 26.6411 2.46268 26.8639 2.54793C27.0868 2.63318 27.2872 2.76633 27.4502 2.93753C27.6133 3.10872 27.7348 3.31357 27.8058 3.5369C27.8769 3.76022 27.8955 3.9963 27.8605 4.22763V7.33024H26.8925V4.46516C26.8925 3.69496 26.55 3.31193 25.8341 3.31193C25.6721 3.30455 25.5103 3.3315 25.3599 3.39092C25.2095 3.45034 25.0741 3.54084 24.9629 3.6562C24.8516 3.77156 24.7672 3.90906 24.7154 4.05927C24.6637 4.20949 24.6458 4.36886 24.6629 4.52648V7.3303H23.6949L23.6949 2.53756Z" fill="white"/>
<path d="M29.4029 0.666647H30.3709V7.33032H29.4029V0.666647Z" fill="white"/>
<path d="M31.7165 4.93194C31.6857 4.61696 31.7226 4.29916 31.8249 3.99892C31.9271 3.69869 32.0924 3.42265 32.3103 3.1885C32.5281 2.95436 32.7936 2.76728 33.0897 2.63926C33.3858 2.51124 33.7061 2.44511 34.0299 2.44511C34.3537 2.44511 34.674 2.51124 34.9701 2.63926C35.2663 2.76728 35.5318 2.95436 35.7496 3.1885C35.9674 3.42265 36.1327 3.69869 36.2349 3.99892C36.3372 4.29916 36.3741 4.61696 36.3433 4.93194C36.3747 5.24724 36.3382 5.56547 36.2362 5.86618C36.1342 6.16688 35.969 6.44342 35.7511 6.67801C35.5333 6.9126 35.2676 7.10007 34.9711 7.22835C34.6747 7.35664 34.3541 7.42291 34.0299 7.42291C33.7057 7.42291 33.3851 7.35664 33.0887 7.22835C32.7922 7.10007 32.5266 6.9126 32.3087 6.67801C32.0908 6.44342 31.9256 6.16688 31.8236 5.86618C31.7216 5.56547 31.6852 5.24724 31.7165 4.93194ZM35.3471 4.93194C35.3471 3.89306 34.8694 3.28552 34.0312 3.28552C33.1898 3.28552 32.7165 3.89306 32.7165 4.93196C32.7165 5.97917 33.1899 6.58202 34.0312 6.58202C34.8695 6.58201 35.3471 5.97499 35.3471 4.93194Z" fill="white"/>
<path d="M37.3623 5.97495C37.3623 5.11223 38.0197 4.61488 39.1866 4.5442L40.5153 4.46936V4.05568C40.5153 3.54948 40.1727 3.26364 39.5111 3.26364C38.9707 3.26364 38.5963 3.4575 38.4888 3.79635H37.5517C37.6506 2.97313 38.4431 2.44511 39.5558 2.44511C40.7855 2.44511 41.479 3.04328 41.479 4.05568V7.33035H40.5472V6.65681H40.4706C40.3151 6.89841 40.0968 7.09537 39.838 7.22758C39.5792 7.35978 39.2891 7.42249 38.9973 7.40931C38.7914 7.43024 38.5833 7.40878 38.3864 7.3463C38.1895 7.28382 38.0082 7.18172 37.8541 7.04658C37.7001 6.91144 37.5767 6.74626 37.492 6.56168C37.4073 6.37711 37.3632 6.17723 37.3623 5.97495ZM40.5153 5.56542V5.16473L39.3175 5.23956C38.642 5.28374 38.3357 5.50825 38.3357 5.93077C38.3357 6.36212 38.7186 6.61314 39.2452 6.61314C39.3995 6.6284 39.5553 6.61318 39.7035 6.56838C39.8516 6.52358 39.989 6.45012 40.1075 6.35237C40.226 6.25462 40.3232 6.13457 40.3932 5.99938C40.4633 5.86418 40.5048 5.7166 40.5153 5.56542Z" fill="white"/>
<path d="M42.7512 4.93189C42.7512 3.41747 43.548 2.45809 44.7872 2.45809C45.0938 2.44429 45.398 2.51603 45.6644 2.66493C45.9307 2.81383 46.1482 3.03373 46.2914 3.29893H46.3637V0.666647H47.3317V7.33032H46.4041V6.5731H46.3275C46.1733 6.83652 45.9482 7.05369 45.6767 7.20109C45.4052 7.34848 45.0976 7.42049 44.7872 7.40931C43.5395 7.40936 42.7512 6.44996 42.7512 4.93189ZM43.7512 4.93189C43.7512 5.94844 44.2416 6.56014 45.0617 6.56014C45.8776 6.56014 46.3818 5.93962 46.3818 4.93606C46.3818 3.93718 45.8723 3.30781 45.0617 3.30781C44.2469 3.30781 43.7512 3.92366 43.7512 4.93189Z" fill="white"/>
<path d="M51.3367 4.93196C51.3058 4.61699 51.3427 4.29921 51.4449 3.99899C51.5471 3.69876 51.7125 3.42273 51.9302 3.18859C52.148 2.95445 52.4135 2.76737 52.7096 2.63936C53.0057 2.51134 53.326 2.44521 53.6498 2.44521C53.9736 2.44521 54.2938 2.51134 54.5899 2.63936C54.886 2.76737 55.1515 2.95445 55.3693 3.18859C55.5871 3.42273 55.7524 3.69876 55.8546 3.99899C55.9568 4.29921 55.9937 4.61699 55.9629 4.93196C55.9943 5.24724 55.9579 5.56547 55.8559 5.86618C55.754 6.16688 55.5888 6.44342 55.3709 6.67802C55.1531 6.91262 54.8874 7.10009 54.591 7.22839C54.2946 7.35668 53.974 7.42295 53.6498 7.42295C53.3256 7.42295 53.005 7.35668 52.7086 7.22839C52.4121 7.10009 52.1465 6.91262 51.9286 6.67802C51.7108 6.44342 51.5456 6.16688 51.4436 5.86618C51.3417 5.56547 51.3053 5.24724 51.3367 4.93196ZM54.9672 4.93196C54.9672 3.89307 54.4896 3.28553 53.6514 3.28553C52.81 3.28553 52.3366 3.89307 52.3366 4.93197C52.3366 5.97918 52.81 6.58203 53.6514 6.58203C54.4896 6.58202 54.9672 5.97501 54.9672 4.93196Z" fill="white"/>
<path d="M57.2617 2.53756H58.1935V3.29893H58.2659C58.3886 3.02547 58.5955 2.79624 58.8579 2.64318C59.1203 2.49012 59.425 2.42086 59.7296 2.44505C59.9682 2.42751 60.2079 2.46268 60.4307 2.54793C60.6536 2.63318 60.854 2.76633 61.017 2.93753C61.1801 3.10872 61.3016 3.31357 61.3726 3.5369C61.4436 3.76022 61.4623 3.9963 61.4273 4.22763V7.33024H60.4593V4.46516C60.4593 3.69496 60.1168 3.31193 59.4009 3.31193C59.2388 3.30455 59.0771 3.3315 58.9267 3.39092C58.7763 3.45034 58.6409 3.54084 58.5296 3.6562C58.4184 3.77156 58.334 3.90906 58.2822 4.05927C58.2304 4.20949 58.2125 4.36886 58.2297 4.52648V7.3303H57.2617V2.53756Z" fill="white"/>
<path d="M66.897 1.34434V2.55941H67.9597V3.35613H66.897V5.82058C66.897 6.32261 67.1087 6.54245 67.5906 6.54245C67.714 6.54206 67.8372 6.53477 67.9597 6.52062V7.30849C67.7859 7.33888 67.6097 7.35504 67.4332 7.35682C66.3567 7.35682 65.928 6.98678 65.928 6.06275V3.35609H65.1493V2.55937H65.928V1.34434H66.897Z" fill="white"/>
<path d="M69.2819 0.666647H70.2414V3.3078H70.318C70.4467 3.03179 70.6593 2.80126 70.927 2.64762C71.1946 2.49398 71.5042 2.42471 71.8136 2.44925C72.051 2.43662 72.2883 2.47535 72.5087 2.56268C72.729 2.65 72.9269 2.78376 73.0882 2.95442C73.2496 3.12507 73.3704 3.32842 73.442 3.54995C73.5137 3.77148 73.5344 4.00573 73.5028 4.236V7.33033H72.5338V4.46934C72.5338 3.70381 72.1689 3.3161 71.485 3.3161C71.3186 3.30277 71.1513 3.32512 70.9946 3.38159C70.838 3.43806 70.6959 3.52728 70.5783 3.64301C70.4607 3.75875 70.3703 3.8982 70.3136 4.05162C70.2569 4.20503 70.2352 4.3687 70.25 4.53118V7.33031H69.282L69.2819 0.666647Z" fill="white"/>
<path d="M79.147 6.03626C79.0155 6.47428 78.7306 6.85318 78.342 7.10665C77.9535 7.36013 77.4861 7.47205 77.0217 7.42283C76.6985 7.43117 76.3774 7.37069 76.0806 7.24559C75.7838 7.1205 75.5183 6.93379 75.3028 6.69842C75.0872 6.46305 74.9266 6.18466 74.8322 5.88257C74.7378 5.58048 74.7117 5.26194 74.7559 4.94904C74.7129 4.63517 74.7394 4.31594 74.8336 4.01294C74.9278 3.70995 75.0875 3.43027 75.302 3.19284C75.5164 2.95541 75.7805 2.76577 76.0765 2.63676C76.3725 2.50775 76.6934 2.44239 77.0174 2.44509C78.3822 2.44509 79.2055 3.35618 79.2055 4.86118V5.19123H75.742V5.24424C75.7269 5.42012 75.7495 5.59715 75.8084 5.76399C75.8674 5.93083 75.9614 6.08379 76.0844 6.21306C76.2073 6.34233 76.3566 6.44506 76.5226 6.51467C76.6886 6.58428 76.8677 6.61922 77.0483 6.61726C77.2798 6.64442 77.5144 6.60368 77.7222 6.50022C77.93 6.39675 78.1016 6.23524 78.2152 6.03623L79.147 6.03626ZM75.742 4.49169H78.2194C78.2316 4.33084 78.2093 4.16927 78.1537 4.01736C78.0982 3.86546 78.0108 3.72658 77.8971 3.60966C77.7834 3.49273 77.646 3.40034 77.4935 3.33842C77.3411 3.2765 77.1771 3.24642 77.0121 3.25012C76.8447 3.24806 76.6785 3.27878 76.5234 3.34045C76.3684 3.40212 76.2275 3.49351 76.1091 3.60922C75.9908 3.72493 75.8973 3.86262 75.8342 4.01418C75.7712 4.16574 75.7398 4.3281 75.742 4.49169Z" fill="white"/>
</g>
<g id="Vector_2">
<path d="M9.24449 20.6326H4.08855L2.85036 24.2051H0.666504L5.55013 10.9878H7.81907L12.7027 24.2051H10.4816L9.24449 20.6326ZM4.62254 18.9841H8.70947L6.69475 13.1862H6.63837L4.62254 18.9841Z" fill="white"/>
<path d="M23.2496 19.3874C23.2496 22.3819 21.6094 24.3059 19.134 24.3059C18.507 24.3379 17.8834 24.1968 17.3346 23.8986C16.7859 23.6004 16.3341 23.1573 16.0311 22.6199H15.9843V27.3929H13.96V14.5686H15.9194V16.1714H15.9567C16.2736 15.6366 16.733 15.1958 17.2859 14.8958C17.8389 14.5958 18.4647 14.4479 19.0968 14.4678C21.5997 14.4678 23.2496 16.4011 23.2496 19.3874ZM21.169 19.3874C21.169 17.4364 20.1371 16.1537 18.5628 16.1537C17.0161 16.1537 15.9758 17.4634 15.9758 19.3874C15.9758 21.329 17.0161 22.6293 18.5628 22.6293C20.1371 22.6293 21.169 21.356 21.169 19.3874Z" fill="white"/>
<path d="M34.104 19.3875C34.104 22.382 32.4638 24.306 29.9884 24.306C29.3614 24.338 28.7378 24.1969 28.189 23.8987C27.6403 23.6005 27.1885 23.1574 26.8855 22.62H26.8387V27.393H24.8144V14.5687H26.7738V16.1715H26.811C27.1279 15.6367 27.5873 15.1959 28.1403 14.8959C28.6932 14.5959 29.319 14.448 29.9512 14.4679C32.4542 14.4679 34.104 16.4012 34.104 19.3875ZM32.0234 19.3875C32.0234 17.4365 30.9915 16.1538 29.4172 16.1538C27.8705 16.1538 26.8302 17.4635 26.8302 19.3875C26.8302 21.3291 27.8705 22.6294 29.4172 22.6294C30.9915 22.6294 32.0234 21.3561 32.0234 19.3875Z" fill="white"/>
<path d="M41.2779 20.5225C41.4279 21.8332 42.731 22.6937 44.5116 22.6937C46.2179 22.6937 47.4454 21.8331 47.4454 20.6513C47.4454 19.6254 46.7051 19.0111 44.952 18.5901L43.199 18.1775C40.7152 17.5913 39.5621 16.4562 39.5621 14.6144C39.5621 12.3339 41.5959 10.7675 44.484 10.7675C47.3422 10.7675 49.3017 12.3339 49.3676 14.6144H47.3241C47.2018 13.2954 46.086 12.4992 44.4552 12.4992C42.8245 12.4992 41.7087 13.3047 41.7087 14.4772C41.7087 15.4116 42.4214 15.9615 44.1648 16.3824L45.6551 16.7399C48.4304 17.3813 49.5835 18.4706 49.5835 20.4039C49.5835 22.8766 47.5677 24.4254 44.3616 24.4254C41.3619 24.4254 39.3365 22.913 39.2057 20.5224L41.2779 20.5225Z" fill="white"/>
<path d="M53.9523 12.2882V14.5687H55.8277V16.1351H53.9523V21.4475C53.9523 22.2728 54.3278 22.6574 55.1522 22.6574C55.3749 22.6536 55.5971 22.6383 55.8181 22.6116V24.1687C55.4475 24.2363 55.0707 24.267 54.6937 24.2601C52.6971 24.2601 51.9185 23.5273 51.9185 21.6585V16.1351H50.4845V14.5687H51.9184V12.2882H53.9523Z" fill="white"/>
<path d="M56.9138 19.3874C56.9138 16.3554 58.7413 14.4502 61.5911 14.4502C64.4504 14.4502 66.2694 16.3554 66.2694 19.3874C66.2694 22.4277 64.46 24.3246 61.5911 24.3246C58.7232 24.3246 56.9138 22.4277 56.9138 19.3874ZM64.2068 19.3874C64.2068 17.3075 63.2313 16.08 61.5911 16.08C59.9508 16.08 58.9764 17.3169 58.9764 19.3874C58.9764 21.4756 59.9508 22.6938 61.5911 22.6938C63.2313 22.6938 64.2068 21.4756 64.2068 19.3874Z" fill="white"/>
<path d="M67.9383 14.5687H69.869V16.2088H69.9159C70.0465 15.6966 70.3536 15.2439 70.7856 14.9268C71.2176 14.6097 71.7481 14.4477 72.288 14.4678C72.5213 14.467 72.7539 14.4918 72.9816 14.5416V16.3918C72.6871 16.3038 72.3798 16.2635 72.072 16.2722C71.7779 16.2606 71.4848 16.3113 71.2126 16.4208C70.9405 16.5303 70.6958 16.696 70.4954 16.9067C70.295 17.1173 70.1436 17.3678 70.0517 17.641C69.9597 17.9142 69.9293 18.2036 69.9626 18.4893V24.205H67.9383L67.9383 14.5687Z" fill="white"/>
<path d="M82.3148 21.3747C82.0425 23.1241 80.299 24.3246 78.0683 24.3246C75.1994 24.3246 73.4187 22.4464 73.4187 19.4331C73.4187 16.4105 75.209 14.4502 77.9832 14.4502C80.7117 14.4502 82.4275 16.2816 82.4275 19.2034V19.8811H75.4622V20.0006C75.43 20.3553 75.4755 20.7125 75.5955 21.0487C75.7155 21.3849 75.9073 21.6922 76.1583 21.9504C76.4092 22.2086 76.7134 22.4116 77.0508 22.546C77.3882 22.6805 77.751 22.7432 78.1152 22.7301C78.5935 22.7739 79.0736 22.6657 79.4839 22.4215C79.8942 22.1773 80.2129 21.8101 80.3926 21.3747L82.3148 21.3747ZM75.4717 18.4987H80.4022C80.4203 18.1798 80.3709 17.8607 80.2568 17.5614C80.1428 17.2621 79.9667 16.989 79.7396 16.7594C79.5124 16.5297 79.2392 16.3484 78.9369 16.2269C78.6347 16.1053 78.31 16.0461 77.9832 16.0529C77.6536 16.051 77.3268 16.1129 77.0218 16.235C76.7167 16.3572 76.4395 16.5371 76.206 16.7645C75.9725 16.9919 75.7874 17.2622 75.6614 17.5598C75.5353 17.8575 75.4709 18.1766 75.4717 18.4987Z" fill="white"/>
</g>
</g>
</svg>
