<svg width="24" height="24" viewBox="0 0 24 24" fill="none" xmlns="http://www.w3.org/2000/svg">
<g id="facebook-filled">
<path id="Vector" d="M21.4992 11.9916C21.4992 6.74424 17.2462 2.49121 11.9996 2.49121C6.75301 2.49121 2.5 6.74424 2.5 11.9916C2.5 16.7324 5.97398 20.6624 10.5152 21.3749V14.7373H8.10365V11.9909H10.5152V9.89839C10.5152 7.51694 11.9339 6.20192 14.1032 6.20192C15.1427 6.20192 16.2297 6.38718 16.2297 6.38718V8.72508H15.0326C13.853 8.72508 13.4848 9.45741 13.4848 10.2087V11.9916H16.1196L15.6984 14.7381H13.4848V21.3757C18.026 20.6632 21.5 16.7332 21.5 11.9916H21.4992Z" fill="#7F7C82"/>
</g>
</svg>
