<svg width="84" height="28" viewBox="0 0 84 28" fill="none" xmlns="http://www.w3.org/2000/svg">
<g id="text">
<g id="Get it on">
<path id="path42" d="M6.20837 3.97704C6.20837 4.79828 5.96533 5.45194 5.47827 5.93998C4.92456 6.52014 4.20426 6.81022 3.31834 6.81022C2.46868 6.81022 1.7474 6.51622 1.15449 5.92724C0.559633 5.33924 0.263672 4.60914 0.263672 3.73889C0.263672 2.86767 0.559633 2.13855 1.15449 1.54957C1.7474 0.961567 2.46868 0.666586 3.31834 0.666586C3.73876 0.666586 4.14252 0.748907 4.52472 0.913547C4.9079 1.07819 5.21464 1.29673 5.44494 1.57015L4.9275 2.08759C4.53844 1.62307 4.00238 1.38983 3.31834 1.38983C2.69898 1.38983 2.1639 1.60739 1.71212 2.04251C1.26033 2.47861 1.03493 3.04309 1.03493 3.73889C1.03493 4.43372 1.26033 4.99918 1.71212 5.4343C2.1639 5.8704 2.69898 6.08698 3.31834 6.08698C3.97494 6.08698 4.52178 5.86844 4.96082 5.43038C5.24502 5.1452 5.40868 4.74928 5.45279 4.23968H3.31834V3.53309H6.16721C6.19465 3.68695 6.20837 3.83493 6.20837 3.97704Z" fill="white"/>
<path id="path46" d="M6.20837 3.97704C6.20837 4.79828 5.96533 5.45194 5.47827 5.93998C4.92456 6.52014 4.20426 6.81022 3.31834 6.81022C2.46868 6.81022 1.7474 6.51622 1.15449 5.92724C0.559633 5.33924 0.263672 4.60914 0.263672 3.73889C0.263672 2.86767 0.559633 2.13855 1.15449 1.54957C1.7474 0.961567 2.46868 0.666586 3.31834 0.666586C3.73876 0.666586 4.14252 0.748907 4.52472 0.913547C4.9079 1.07819 5.21464 1.29673 5.44494 1.57015L4.9275 2.08759C4.53844 1.62307 4.00238 1.38983 3.31834 1.38983C2.69898 1.38983 2.1639 1.60739 1.71212 2.04251C1.26033 2.47861 1.03493 3.04309 1.03493 3.73889C1.03493 4.43372 1.26033 4.99918 1.71212 5.4343C2.1639 5.8704 2.69898 6.08698 3.31834 6.08698C3.97494 6.08698 4.52178 5.86844 4.96082 5.43038C5.24502 5.1452 5.40868 4.74928 5.45279 4.23968H3.31834V3.53309H6.16721C6.19465 3.68695 6.20837 3.83493 6.20837 3.97704Z" fill="white"/>
<path id="path50" d="M10.7254 1.52124H8.04806V3.38521H10.4628V4.09179H8.04806V5.95576H10.7254V6.679H7.29248V0.798982H10.7254V1.52124Z" fill="white"/>
<path id="path54" d="M10.7254 1.52124H8.04806V3.38521H10.4628V4.09179H8.04806V5.95576H10.7254V6.679H7.29248V0.798982H10.7254V1.52124Z" fill="white"/>
<path id="path58" d="M13.9117 6.67879H13.1562V1.52104H11.5137V0.798778H15.5542V1.52104H13.9117V6.67879Z" fill="white"/>
<path id="path62" d="M13.9117 6.67879H13.1562V1.52104H11.5137V0.798778H15.5542V1.52104H13.9117V6.67879Z" fill="white"/>
<path id="path64" d="M18.4773 0.798778H19.2329V6.67879H18.4773V0.798778Z" fill="white"/>
<path id="path68" d="M22.5843 6.67879H21.8288V1.52104H20.1863V0.798778H24.2268V1.52104H22.5843V6.67879Z" fill="white"/>
<path id="path72" d="M22.5843 6.67879H21.8288V1.52104H20.1863V0.798778H24.2268V1.52104H22.5843V6.67879Z" fill="white"/>
<path id="path76" d="M28.1224 5.42646C28.5576 5.86746 29.0897 6.08698 29.7198 6.08698C30.35 6.08698 30.8821 5.86746 31.3172 5.42646C31.7524 4.98546 31.9709 4.42294 31.9709 3.73889C31.9709 3.05485 31.7524 2.49135 31.3172 2.05133C30.8821 1.61033 30.35 1.38983 29.7198 1.38983C29.0897 1.38983 28.5576 1.61033 28.1224 2.05133C27.6883 2.49135 27.4697 3.05485 27.4697 3.73889C27.4697 4.42294 27.6883 4.98546 28.1224 5.42646ZM31.8758 5.91842C31.2976 6.51328 30.5793 6.81022 29.7198 6.81022C28.8604 6.81022 28.142 6.51328 27.5648 5.91842C26.9866 5.32454 26.6985 4.59836 26.6985 3.73889C26.6985 2.87943 26.9866 2.15227 27.5648 1.55839C28.142 0.964507 28.8604 0.666586 29.7198 0.666586C30.5744 0.666586 31.2908 0.965487 31.8719 1.56231C32.4521 2.15913 32.7422 2.88433 32.7422 3.73889C32.7422 4.59836 32.4531 5.32454 31.8758 5.91842Z" fill="white"/>
<path id="path80" d="M28.1224 5.42646C28.5576 5.86746 29.0897 6.08698 29.7198 6.08698C30.35 6.08698 30.8821 5.86746 31.3172 5.42646C31.7524 4.98546 31.9709 4.42294 31.9709 3.73889C31.9709 3.05485 31.7524 2.49135 31.3172 2.05133C30.8821 1.61033 30.35 1.38983 29.7198 1.38983C29.0897 1.38983 28.5576 1.61033 28.1224 2.05133C27.6883 2.49135 27.4697 3.05485 27.4697 3.73889C27.4697 4.42294 27.6883 4.98546 28.1224 5.42646ZM31.8758 5.91842C31.2976 6.51328 30.5793 6.81022 29.7198 6.81022C28.8604 6.81022 28.142 6.51328 27.5648 5.91842C26.9866 5.32454 26.6985 4.59836 26.6985 3.73889C26.6985 2.87943 26.9866 2.15227 27.5648 1.55839C28.142 0.964507 28.8604 0.666586 29.7198 0.666586C30.5744 0.666586 31.2908 0.965487 31.8719 1.56231C32.4521 2.15913 32.7422 2.88433 32.7422 3.73889C32.7422 4.59836 32.4531 5.32454 31.8758 5.91842Z" fill="white"/>
<path id="path84" d="M33.802 6.67879V0.798778H34.7212L37.5789 5.37245H37.6123L37.5789 4.23957V0.798778H38.3355V6.67879H37.5466L34.5566 1.88266H34.5243L34.5566 3.01652V6.67879H33.802Z" fill="white"/>
<path id="path88" d="M33.802 6.67879V0.798778H34.7212L37.5789 5.37245H37.6123L37.5789 4.23957V0.798778H38.3355V6.67879H37.5466L34.5566 1.88266H34.5243L34.5566 3.01652V6.67879H33.802Z" fill="white"/>
</g>
<path id="Google Play" d="M64.84 23.6709H66.6686V11.4198H64.84V23.6709ZM81.3109 15.8328L79.2146 21.1444H79.1519L76.9763 15.8328H75.0065L78.2689 23.2563L76.4099 27.386H78.316L83.3444 15.8328H81.3109ZM70.9405 22.2793C70.3407 22.2793 69.5057 21.9804 69.5057 21.2385C69.5057 20.2938 70.5455 19.9312 71.4442 19.9312C72.2478 19.9312 72.6271 20.1046 73.1151 20.3408C72.973 21.4757 71.9959 22.2793 70.9405 22.2793ZM71.161 15.5653C69.837 15.5653 68.465 16.1484 67.8985 17.441L69.5214 18.1182C69.8683 17.441 70.5142 17.2195 71.1923 17.2195C72.138 17.2195 73.0994 17.7869 73.1151 18.7963V18.9218C72.7839 18.7326 72.0753 18.4494 71.208 18.4494C69.4587 18.4494 67.6771 19.4108 67.6771 21.2071C67.6771 22.8467 69.1118 23.9031 70.719 23.9031C71.9489 23.9031 72.6271 23.3514 73.0524 22.7046H73.1151V23.6503H74.8801V18.9531C74.8801 16.7785 73.2572 15.5653 71.161 15.5653ZM59.8596 17.3244H57.2587V13.1251H59.8596C61.2267 13.1251 62.0028 14.257 62.0028 15.2242C62.0028 16.1738 61.2267 17.3244 59.8596 17.3244ZM59.8125 11.4198H55.431V23.6709H57.2587V19.0296H59.8125C61.8392 19.0296 63.8315 17.5615 63.8315 15.2242C63.8315 12.8869 61.8392 11.4198 59.8125 11.4198ZM35.9191 22.2812C34.6559 22.2812 33.5985 21.2238 33.5985 19.7714C33.5985 18.3034 34.6559 17.2293 35.9191 17.2293C37.1666 17.2293 38.1447 18.3034 38.1447 19.7714C38.1447 21.2238 37.1666 22.2812 35.9191 22.2812ZM38.0192 16.5188H37.9555C37.5449 16.0298 36.756 15.5878 35.7613 15.5878C33.6769 15.5878 31.7668 17.4184 31.7668 19.7714C31.7668 22.1078 33.6769 23.9237 35.7613 23.9237C36.756 23.9237 37.5449 23.4817 37.9555 22.976H38.0192V23.5768C38.0192 25.1712 37.1666 26.0238 35.7927 26.0238C34.6716 26.0238 33.9767 25.2183 33.6925 24.5391L32.0981 25.2026C32.5557 26.308 33.7719 27.6653 35.7927 27.6653C37.9399 27.6653 39.7558 26.4021 39.7558 23.3239V15.8397H38.0192V16.5188ZM41.019 23.6709H42.8507V11.4189H41.019V23.6709ZM45.5496 19.6293C45.5025 18.0192 46.7971 17.1979 47.7281 17.1979C48.4553 17.1979 49.0707 17.5605 49.2756 18.0819L45.5496 19.6293ZM51.2336 18.2397C50.8867 17.3087 49.8283 15.5878 47.6654 15.5878C45.5182 15.5878 43.7346 17.2763 43.7346 19.7557C43.7346 22.0921 45.5025 23.9237 47.8702 23.9237C49.7812 23.9237 50.8867 22.7555 51.3443 22.0764L49.9233 21.1287C49.45 21.8236 48.8022 22.2812 47.8702 22.2812C46.9392 22.2812 46.2758 21.8549 45.8495 21.019L51.4227 18.713L51.2336 18.2397ZM6.83165 16.8667V18.6346H11.0623C10.9359 19.6293 10.6047 20.3555 10.1 20.8602C9.48353 21.4766 8.52019 22.1558 6.83165 22.1558C4.22582 22.1558 2.18938 20.0556 2.18938 17.4508C2.18938 14.845 4.22582 12.7458 6.83165 12.7458C8.23697 12.7458 9.26304 13.2985 10.0206 14.009L11.2681 12.7615C10.2097 11.7511 8.80537 10.9769 6.83165 10.9769C3.26346 10.9769 0.263672 13.8826 0.263672 17.4508C0.263672 21.019 3.26346 23.9237 6.83165 23.9237C8.75735 23.9237 10.2097 23.2916 11.3465 22.1078C12.5157 20.9396 12.8783 19.2981 12.8783 17.9712C12.8783 17.5605 12.8469 17.1823 12.7832 16.8667H6.83165ZM17.6891 22.2812C16.4259 22.2812 15.3361 21.2395 15.3361 19.7557C15.3361 18.2554 16.4259 17.2293 17.6891 17.2293C18.9513 17.2293 20.0411 18.2554 20.0411 19.7557C20.0411 21.2395 18.9513 22.2812 17.6891 22.2812ZM17.6891 15.5878C15.3831 15.5878 13.5045 17.34 13.5045 19.7557C13.5045 22.1558 15.3831 23.9237 17.6891 23.9237C19.9941 23.9237 21.8727 22.1558 21.8727 19.7557C21.8727 17.34 19.9941 15.5878 17.6891 15.5878ZM26.8159 22.2812C25.5526 22.2812 24.4629 21.2395 24.4629 19.7557C24.4629 18.2554 25.5526 17.2293 26.8159 17.2293C28.0791 17.2293 29.1679 18.2554 29.1679 19.7557C29.1679 21.2395 28.0791 22.2812 26.8159 22.2812ZM26.8159 15.5878C24.5109 15.5878 22.6322 17.34 22.6322 19.7557C22.6322 22.1558 24.5109 23.9237 26.8159 23.9237C29.1208 23.9237 30.9995 22.1558 30.9995 19.7557C30.9995 17.34 29.1208 15.5878 26.8159 15.5878Z" fill="white"/>
</g>
</svg>
