<svg width="25" height="28" viewBox="0 0 25 28" fill="none" xmlns="http://www.w3.org/2000/svg">
<g id="icon">
<path id="path94" d="M11.1406 13.4018L0.101807 25.1177C0.102843 25.1198 0.102843 25.1229 0.10388 25.1249C0.442914 26.3971 1.60413 27.3333 2.98307 27.3333C3.53465 27.3333 4.05201 27.184 4.49576 26.9227L4.53101 26.902L16.956 19.7325L11.1406 13.4018Z" fill="#EA4335"/>
<path id="path98" d="M22.3077 11.4067L22.2973 11.3995L16.9329 8.2901L10.8894 13.668L16.9547 19.7312L22.2901 16.6529C23.2252 16.147 23.8608 15.161 23.8608 14.0246C23.8608 12.8945 23.2346 11.9137 22.3077 11.4067Z" fill="#FBBC04"/>
<path id="path102" d="M0.101606 2.8815C0.0352512 3.12618 0 3.38331 0 3.64873V24.3515C0 24.617 0.0352512 24.8741 0.102643 25.1177L11.5199 13.7015L0.101606 2.8815Z" fill="#4285F4"/>
<path id="path106" d="M11.2225 14L16.9353 8.28825L4.52479 1.09286C4.07379 0.82226 3.54709 0.66674 2.98411 0.66674C1.60517 0.66674 0.441876 1.60504 0.102843 2.87823C0.102843 2.87927 0.101807 2.88031 0.101807 2.88134L11.2225 14Z" fill="#34A853"/>
</g>
</svg>
