<svg width="24" height="24" viewBox="0 0 24 24" fill="none" xmlns="http://www.w3.org/2000/svg">
<g id="home-filled">
<path id="Subtract" fill-rule="evenodd" clip-rule="evenodd" d="M3.20706 12.75C2.7616 12.75 2.53852 12.2114 2.8535 11.8964L11.6464 3.10355C11.8417 2.90829 12.1582 2.90829 12.3535 3.10355L21.1464 11.8964C21.4614 12.2114 21.2383 12.75 20.7928 12.75H19V19.25C19 20.3546 18.1045 21.25 17 21.25H6.99995C5.89538 21.25 4.99995 20.3546 4.99995 19.25V12.75H3.20706ZM11 12.25C9.89543 12.25 9 13.1454 9 14.25V16.25C9 17.3546 9.89543 18.25 11 18.25H13C14.1046 18.25 15 17.3546 15 16.25V14.25C15 13.1454 14.1046 12.25 13 12.25H11Z" fill="#1A1A1A" stroke="#1A1A1A" stroke-width="1.5" stroke-linecap="round" stroke-linejoin="round"/>
</g>
</svg>
