<svg width="24" height="24" viewBox="0 0 24 24" fill="none" xmlns="http://www.w3.org/2000/svg">
<g id="instagram">
<path id="Vector" d="M12 2.5C9.41917 2.5 9.09696 2.51187 8.08363 2.557C7.07188 2.6045 6.38313 2.76362 5.7775 2.99875C5.15287 3.241 4.62246 3.56638 4.09442 4.09442C3.56638 4.62246 3.24021 5.15208 2.99875 5.7775C2.76362 6.38313 2.60371 7.07188 2.557 8.08363C2.5095 9.09696 2.5 9.41917 2.5 12C2.5 14.5808 2.51187 14.903 2.557 15.9164C2.6045 16.9273 2.76362 17.6169 2.99875 18.2225C3.23727 18.8565 3.61118 19.4309 4.09442 19.9056C4.56884 20.3892 5.14329 20.7631 5.7775 21.0013C6.38392 21.2356 7.07267 21.3963 8.08363 21.443C9.09696 21.4905 9.41917 21.5 12 21.5C14.5808 21.5 14.903 21.4881 15.9164 21.443C16.9273 21.3955 17.6169 21.2356 18.2225 21.0013C18.8564 20.7624 19.4307 20.3886 19.9056 19.9056C20.3893 19.4313 20.7633 18.8568 21.0013 18.2225C21.2356 17.6169 21.3963 16.9273 21.443 15.9164C21.4905 14.903 21.5 14.5808 21.5 12C21.5 9.41917 21.4881 9.09696 21.443 8.08363C21.3955 7.07267 21.2356 6.38233 21.0013 5.7775C20.7626 5.14355 20.3887 4.5692 19.9056 4.09442C19.4315 3.61042 18.857 3.2364 18.2225 2.99875C17.6169 2.76362 16.9273 2.60371 15.9164 2.557C14.903 2.5095 14.5808 2.5 12 2.5ZM12 4.21C14.5357 4.21 14.8381 4.22267 15.8396 4.26621C16.7658 4.30975 17.2685 4.46333 17.6026 4.59475C18.0475 4.76654 18.3626 4.97238 18.6967 5.30408C19.0284 5.63658 19.2342 5.95246 19.406 6.39737C19.5359 6.73146 19.691 7.23417 19.733 8.16042C19.7781 9.16267 19.7884 9.4635 19.7884 12C19.7884 14.5365 19.7765 14.8381 19.7298 15.8396C19.6815 16.7658 19.5272 17.2685 19.3965 17.6026C19.242 18.0149 18.9991 18.3883 18.6848 18.6967C18.3778 19.0112 18.0046 19.2535 17.5923 19.406C17.2598 19.5359 16.7492 19.691 15.823 19.733C14.8144 19.7781 14.5175 19.7884 11.9763 19.7884C9.43421 19.7884 9.13733 19.7765 8.12954 19.7298C7.2025 19.6815 6.69187 19.5272 6.35938 19.3965C5.94684 19.2439 5.57379 19.0007 5.26767 18.6848C4.94988 18.3798 4.70615 18.0061 4.55517 17.5923C4.42454 17.2598 4.27096 16.7492 4.22267 15.823C4.18704 14.8255 4.17438 14.5175 4.17438 11.9881C4.17438 9.45796 4.18704 9.14921 4.22267 8.13983C4.27096 7.21358 4.42454 6.70375 4.55517 6.37125C4.72142 5.92 4.93438 5.61125 5.26767 5.27796C5.59938 4.94625 5.90892 4.7325 6.35938 4.56704C6.69187 4.43563 7.19142 4.28125 8.11767 4.23375C9.12704 4.19813 9.42392 4.18625 11.9644 4.18625L12 4.21ZM12 7.12175C11.3594 7.12175 10.725 7.24793 10.1332 7.49308C9.54132 7.73824 9.00354 8.09757 8.55056 8.55056C8.09757 9.00354 7.73824 9.54132 7.49308 10.1332C7.24793 10.725 7.12175 11.3594 7.12175 12C7.12175 12.6406 7.24793 13.275 7.49308 13.8668C7.73824 14.4587 8.09757 14.9965 8.55056 15.4494C9.00354 15.9024 9.54132 16.2618 10.1332 16.5069C10.725 16.7521 11.3594 16.8783 12 16.8783C13.2938 16.8783 14.5346 16.3643 15.4494 15.4494C16.3643 14.5346 16.8783 13.2938 16.8783 12C16.8783 10.7062 16.3643 9.46541 15.4494 8.55056C14.5346 7.63571 13.2938 7.12175 12 7.12175ZM12 15.1667C10.2504 15.1667 8.83333 13.7496 8.83333 12C8.83333 10.2504 10.2504 8.83333 12 8.83333C13.7496 8.83333 15.1667 10.2504 15.1667 12C15.1667 13.7496 13.7496 15.1667 12 15.1667ZM18.2114 6.92938C18.2004 7.22437 18.0755 7.50362 17.8629 7.70843C17.6503 7.91324 17.3666 8.02767 17.0714 8.02767C16.7762 8.02767 16.4925 7.91324 16.2799 7.70843C16.0673 7.50362 15.9424 7.22437 15.9314 6.92938C15.9314 6.62703 16.0515 6.33706 16.2653 6.12327C16.4791 5.90948 16.7691 5.78938 17.0714 5.78938C17.3738 5.78938 17.6637 5.90948 17.8775 6.12327C18.0913 6.33706 18.2114 6.62703 18.2114 6.92938Z" fill="#7F7C82"/>
</g>
</svg>
