<svg width="81" height="80" viewBox="0 0 81 80" fill="none" xmlns="http://www.w3.org/2000/svg">
<g id="logo square">
<path id="bg" d="M0.5 16C0.5 7.16344 7.66344 0 16.5 0H64.5C73.3366 0 80.5 7.16344 80.5 16V64C80.5 72.8366 73.3366 80 64.5 80H16.5C7.66344 80 0.5 72.8366 0.5 64V16Z" fill="#7538F3"/>
<g id="symbol">
<path d="M36.1923 40.4284C40.7371 39.9442 44.1802 38.5732 46.8173 36.8157C50.1492 34.5951 52.4165 31.6078 53.9667 28.5083C55.5242 25.3943 56.3213 22.2356 56.7233 19.8243C56.8671 18.962 56.9924 18.094 57.0608 17.2218C57.1137 16.5471 57.6619 16.001 58.3387 16.0022L63.2696 16.0111C63.9492 16.0123 64.5017 16.5645 64.4628 17.243C64.3898 18.5153 64.2168 19.7821 64.0075 21.038C63.5248 23.9328 62.5527 27.849 60.5717 31.8098C58.5835 35.7851 55.5432 39.8727 50.9135 42.9582C50.1958 43.4366 49.445 43.8874 48.6602 44.3076L63.2692 44.3076C63.949 44.3076 64.5 44.8587 64.5 45.5384V50.4615C64.5 51.1412 63.949 51.6922 63.2692 51.6922L30.0385 51.6922C29.3587 51.6922 28.8077 51.1412 28.8077 50.4615L28.8077 17.2308C28.8077 16.551 29.3587 16 30.0385 16H34.9615C35.6413 16 36.1923 16.551 36.1923 17.2308L36.1923 40.4284Z" fill="white"/>
<path d="M24.5 56.6153C24.1601 56.6153 23.8846 56.3398 23.8846 55.9999L23.8846 29.5384C23.8846 28.8587 23.3336 28.3077 22.6539 28.3077H17.7308C17.051 28.3077 16.5 28.8587 16.5 29.5384L16.5 62.7691C16.5 63.4489 17.051 63.9999 17.7308 63.9999H50.9615C51.6413 63.9999 52.1923 63.4489 52.1923 62.7691V57.8461C52.1923 57.1663 51.6413 56.6153 50.9615 56.6153H24.5Z" fill="white"/>
</g>
</g>
</svg>
