<svg width="116" height="28" viewBox="0 0 116 28" fill="none" xmlns="http://www.w3.org/2000/svg">
<g id="logo">
<g id="Union">
<path d="M10.0255 13.0399C11.8004 12.8508 13.145 12.3154 14.1748 11.6291C15.476 10.7619 16.3615 9.59526 16.9669 8.38481C17.5751 7.16872 17.8864 5.93518 18.0434 4.9935C18.0995 4.65676 18.1485 4.31774 18.1752 3.97715C18.1959 3.71365 18.4099 3.50038 18.6742 3.50086L20.5999 3.50433C20.8653 3.50481 21.0811 3.72047 21.0659 3.98543C21.0374 4.48228 20.9698 4.97702 20.8881 5.46746C20.6996 6.59796 20.3199 8.12733 19.5463 9.67415C18.7699 11.2266 17.5825 12.8229 15.7745 14.0279C15.4942 14.2147 15.201 14.3907 14.8946 14.5549L20.5998 14.5549C20.8652 14.5549 21.0804 14.7701 21.0804 15.0355V16.9581C21.0804 17.2236 20.8652 17.4388 20.5998 17.4388L7.62227 17.4388C7.35681 17.4388 7.14162 17.2236 7.14162 16.9581L7.14162 3.98065C7.14162 3.71519 7.35681 3.5 7.62227 3.5H9.54486C9.81031 3.5 10.0255 3.71519 10.0255 3.98065L10.0255 13.0399Z" fill="#7538F3"/>
<path d="M5.45935 19.3613C5.32663 19.3613 5.21903 19.2537 5.21903 19.121L5.21903 8.78711C5.21903 8.52166 5.00384 8.30647 4.73838 8.30647H2.81579C2.55034 8.30647 2.33515 8.52166 2.33515 8.78711L2.33514 21.7646C2.33514 22.03 2.55034 22.2452 2.81579 22.2452H15.7933C16.0587 22.2452 16.2739 22.03 16.2739 21.7646V19.842C16.2739 19.5765 16.0587 19.3613 15.7933 19.3613H5.45935Z" fill="#7538F3"/>
</g>
<g id="Vector">
<path d="M106.711 18.8539V13.4927C106.711 13.2937 106.549 13.1323 106.35 13.1323H105.11C104.911 13.1323 104.75 12.9709 104.75 12.7718V10.7473C104.75 10.5482 104.911 10.3868 105.11 10.3868H106.35C106.549 10.3868 106.711 10.2254 106.711 10.0263V7.42506C106.711 7.22597 106.872 7.06458 107.071 7.06458H109.603C109.802 7.06458 109.964 7.22597 109.964 7.42506V10.0263C109.964 10.2254 110.125 10.3868 110.324 10.3868H112.326C112.525 10.3868 112.686 10.5482 112.686 10.7473V12.7718C112.686 12.9709 112.525 13.1323 112.326 13.1323H110.324C110.125 13.1323 109.964 13.2937 109.964 13.4927V18.3232C109.964 19.1538 110.287 19.4999 111.14 19.4999H112.395C112.594 19.4999 112.755 19.6613 112.755 19.8604V21.8848C112.755 22.0839 112.594 22.2453 112.395 22.2453H110.102C107.841 22.2453 106.711 21.1148 106.711 18.8539Z" fill="#1A1A1A"/>
<path d="M92.9542 18.6535C92.9249 18.4488 93.0909 18.2742 93.2977 18.2742H95.6859C95.8696 18.2742 96.0198 18.4141 96.0708 18.5905C96.3207 19.4549 97.191 20.0276 98.6155 20.0276C99.9767 20.0276 100.807 19.5893 100.807 18.7587C100.807 17.7897 99.9998 17.7205 98.0849 17.4667C95.3164 17.1437 93.1708 16.5208 93.1708 14.0753C93.1708 11.7221 95.2241 10.1763 98.2695 10.1994C101.282 10.1994 103.406 11.4589 103.763 13.646C103.796 13.8518 103.63 14.0292 103.421 14.0292H101.019C100.833 14.0292 100.683 13.8859 100.626 13.7094C100.381 12.9549 99.5444 12.5065 98.3848 12.5065C97.1159 12.5065 96.2854 12.9679 96.2854 13.7292C96.2854 14.629 97.3005 14.7213 99.0078 14.9289C101.73 15.2058 103.991 15.8287 103.991 18.5049C103.991 20.8582 101.776 22.3578 98.5925 22.3578C95.461 22.3578 93.2857 20.9652 92.9542 18.6535Z" fill="#1A1A1A"/>
<path d="M88.8268 22.2454C88.6277 22.2454 88.4663 22.084 88.4663 21.8849V10.7473C88.4663 10.5483 88.6277 10.3869 88.8268 10.3869H91.3819C91.581 10.3869 91.7424 10.5483 91.7424 10.7473V21.8849C91.7424 22.084 91.581 22.2454 91.3819 22.2454H88.8268Z" fill="#1A1A1A"/>
<path d="M83.6488 22.2455C83.4497 22.2455 83.2883 22.0841 83.2883 21.885V6.45626C83.2883 6.25717 83.4497 6.09577 83.6488 6.09577H86.1809C86.3799 6.09577 86.5413 6.25717 86.5413 6.45626V21.885C86.5413 22.0841 86.3799 22.2455 86.1809 22.2455H83.6488Z" fill="#1A1A1A"/>
<path d="M76.3325 10.2223C79.5393 10.1992 81.8465 12.5755 81.8465 16.313C81.8465 20.0044 79.5393 22.3576 76.3555 22.3576C75.0238 22.3576 73.9971 21.9154 73.2506 21.2294C73.0825 21.075 72.7795 21.1862 72.7795 21.4144V26.4729C72.7795 26.672 72.6181 26.8334 72.419 26.8334H69.887C69.6879 26.8334 69.5265 26.672 69.5265 26.4729V10.7212C69.5265 10.5221 69.6879 10.3607 69.887 10.3607H72.0679C72.2401 10.3607 72.3883 10.4825 72.4216 10.6514L72.5829 11.4695C72.6231 11.6736 72.8917 11.7376 73.0348 11.5866C73.7958 10.7844 74.8853 10.2223 76.3325 10.2223ZM75.6173 19.7045C77.3937 19.7045 78.5473 18.2971 78.5473 16.2669C78.5473 14.2597 77.3937 12.8754 75.6173 12.8754C73.8408 12.8754 72.7334 14.2597 72.7334 16.2669C72.7334 18.2971 73.8408 19.7045 75.6173 19.7045Z" fill="#1A1A1A"/>
<path d="M49.2765 22.3579C45.3313 22.3579 42.955 19.9816 42.955 16.3133C42.955 12.622 45.3775 10.2226 49.0458 10.2226C52.5987 10.2226 54.9981 12.4374 55.0442 15.9211C55.0442 16.2672 55.0212 16.6594 54.952 17.0285H46.3464V17.19C46.4156 18.8742 47.5 19.8893 49.138 19.8893C50.2655 19.8893 51.1047 19.4654 51.4956 18.6465C51.6144 18.3977 51.8462 18.2052 52.1219 18.2052H54.4369C54.6587 18.2052 54.8288 18.4041 54.7742 18.6191C54.2377 20.7291 52.2457 22.3579 49.2765 22.3579ZM46.4961 14.5032C46.4387 14.7133 46.6088 14.906 46.8265 14.906H51.3459C51.5676 14.906 51.7385 14.7068 51.6776 14.4937C51.3364 13.3006 50.3993 12.645 49.0688 12.645C47.8013 12.645 46.8145 13.3375 46.4961 14.5032Z" fill="#1A1A1A"/>
<path d="M62.3269 22.3579C58.3818 22.3579 56.0055 19.9816 56.0055 16.3133C56.0055 12.622 58.4279 10.2226 62.0962 10.2226C65.6492 10.2226 68.0486 12.4374 68.0947 15.9211C68.0947 16.2672 68.0716 16.6594 68.0024 17.0285H59.3969V17.19C59.4661 18.8742 60.5505 19.8893 62.1885 19.8893C63.316 19.8893 64.1552 19.4654 64.5461 18.6465C64.6649 18.3977 64.8967 18.2052 65.1724 18.2052H67.4874C67.7092 18.2052 67.8793 18.4041 67.8246 18.6191C67.2881 20.7291 65.2962 22.3579 62.3269 22.3579ZM59.5466 14.5032C59.4892 14.7133 59.6593 14.906 59.877 14.906H64.3964C64.618 14.906 64.789 14.7068 64.728 14.4937C64.3868 13.3006 63.4497 12.645 62.1193 12.645C60.8518 12.645 59.865 13.3375 59.5466 14.5032Z" fill="#1A1A1A"/>
<path d="M29.1289 22.2455C28.9298 22.2455 28.7684 22.0841 28.7684 21.885V6.45626C28.7684 6.25717 28.9298 6.09577 29.1289 6.09577H31.8685C32.0676 6.09577 32.229 6.25717 32.229 6.45626V12.7742C32.229 12.9955 32.5029 13.0992 32.6495 12.9333L38.5096 6.29884C38.6236 6.16972 38.7876 6.09577 38.9599 6.09577H42.0863C42.3971 6.09577 42.5622 6.4629 42.356 6.69547L37.222 12.4836C37.0399 12.6889 37.02 12.9915 37.1738 13.2189L42.8996 21.683C43.0615 21.9224 42.89 22.2455 42.601 22.2455H39.3184C39.1989 22.2455 39.0871 22.1862 39.02 22.0873L34.728 15.7555C34.5958 15.5604 34.3151 15.5426 34.1592 15.7193L32.3792 17.7378C32.2824 17.8476 32.229 17.9889 32.229 18.1352V21.885C32.229 22.0841 32.0676 22.2455 31.8685 22.2455H29.1289Z" fill="#1A1A1A"/>
<path d="M90.1043 9.33638C89.0258 9.33638 88.1817 8.51415 88.1817 7.42589C88.1817 6.31345 89.0258 5.49121 90.1043 5.49121C91.1829 5.49121 92.0269 6.31345 92.0269 7.42589C92.0269 8.51415 91.1829 9.33638 90.1043 9.33638Z" fill="#1A1A1A"/>
</g>
</g>
</svg>
