<svg width="116" height="28" viewBox="0 0 116 28" fill="none" xmlns="http://www.w3.org/2000/svg">
<g id="logo">
<g id="Union">
<path d="M10.0253 13.0399C11.8002 12.8508 13.1448 12.3154 14.1746 11.6291C15.4758 10.7619 16.3613 9.59526 16.9667 8.38481C17.5749 7.16872 17.8862 5.93518 18.0432 4.9935C18.0994 4.65676 18.1483 4.31774 18.175 3.97715C18.1957 3.71365 18.4098 3.50038 18.6741 3.50086L20.5997 3.50433C20.8651 3.50481 21.0809 3.72047 21.0657 3.98543C21.0372 4.48228 20.9696 4.97702 20.8879 5.46746C20.6994 6.59796 20.3198 8.12733 19.5461 9.67415C18.7697 11.2266 17.5823 12.8229 15.7743 14.0279C15.494 14.2147 15.2009 14.3907 14.8944 14.5549L20.5996 14.5549C20.865 14.5549 21.0802 14.7701 21.0802 15.0355V16.9581C21.0802 17.2236 20.865 17.4388 20.5996 17.4388L7.62209 17.4388C7.35663 17.4388 7.14144 17.2236 7.14144 16.9581L7.14144 3.98065C7.14144 3.71519 7.35663 3.5 7.62209 3.5H9.54468C9.81013 3.5 10.0253 3.71519 10.0253 3.98065L10.0253 13.0399Z" fill="#9160F5"/>
<path d="M5.45917 19.3613C5.32644 19.3613 5.21885 19.2537 5.21885 19.121L5.21885 8.78711C5.21885 8.52166 5.00365 8.30647 4.7382 8.30647H2.81561C2.55016 8.30647 2.33496 8.52166 2.33496 8.78711L2.33496 21.7646C2.33496 22.03 2.55015 22.2452 2.81561 22.2452H15.7931C16.0585 22.2452 16.2737 22.03 16.2737 21.7646V19.842C16.2737 19.5765 16.0585 19.3613 15.7931 19.3613H5.45917Z" fill="#9160F5"/>
</g>
<g id="Vector">
<path d="M106.711 18.8539V13.4927C106.711 13.2937 106.549 13.1323 106.35 13.1323H105.11C104.911 13.1323 104.75 12.9709 104.75 12.7718V10.7473C104.75 10.5482 104.911 10.3868 105.11 10.3868H106.35C106.549 10.3868 106.711 10.2254 106.711 10.0263V7.42506C106.711 7.22597 106.872 7.06458 107.071 7.06458H109.603C109.803 7.06458 109.964 7.22597 109.964 7.42506V10.0263C109.964 10.2254 110.125 10.3868 110.324 10.3868H112.326C112.525 10.3868 112.686 10.5482 112.686 10.7473V12.7718C112.686 12.9709 112.525 13.1323 112.326 13.1323H110.324C110.125 13.1323 109.964 13.2937 109.964 13.4927V18.3232C109.964 19.1538 110.287 19.4999 111.141 19.4999H112.395C112.594 19.4999 112.756 19.6613 112.756 19.8604V21.8848C112.756 22.0839 112.594 22.2453 112.395 22.2453H110.102C107.841 22.2453 106.711 21.1148 106.711 18.8539Z" fill="#F0F0F0"/>
<path d="M92.9544 18.6535C92.9251 18.4488 93.0911 18.2742 93.2979 18.2742H95.6861C95.8697 18.2742 96.02 18.4141 96.071 18.5905C96.3209 19.4549 97.1912 20.0276 98.6157 20.0276C99.9769 20.0276 100.807 19.5893 100.807 18.7587C100.807 17.7897 100 17.7205 98.0851 17.4667C95.3166 17.1437 93.171 16.5208 93.171 14.0753C93.171 11.7221 95.2243 10.1763 98.2697 10.1994C101.282 10.1994 103.406 11.4589 103.763 13.646C103.797 13.8518 103.63 14.0292 103.421 14.0292H101.019C100.834 14.0292 100.683 13.8859 100.626 13.7094C100.381 12.9549 99.5445 12.5065 98.385 12.5065C97.1161 12.5065 96.2856 12.9679 96.2856 13.7292C96.2856 14.629 97.3007 14.7213 99.0079 14.9289C101.73 15.2058 103.991 15.8287 103.991 18.5049C103.991 20.8582 101.776 22.3578 98.5927 22.3578C95.4612 22.3578 93.2859 20.9652 92.9544 18.6535Z" fill="#F0F0F0"/>
<path d="M88.827 22.2454C88.6279 22.2454 88.4665 22.084 88.4665 21.8849V10.7473C88.4665 10.5483 88.6279 10.3869 88.827 10.3869H91.3821C91.5812 10.3869 91.7426 10.5483 91.7426 10.7473V21.8849C91.7426 22.084 91.5812 22.2454 91.3821 22.2454H88.827Z" fill="#F0F0F0"/>
<path d="M83.649 22.2455C83.4499 22.2455 83.2885 22.0841 83.2885 21.885V6.45626C83.2885 6.25717 83.4499 6.09577 83.649 6.09577H86.181C86.3801 6.09577 86.5415 6.25717 86.5415 6.45626V21.885C86.5415 22.0841 86.3801 22.2455 86.181 22.2455H83.649Z" fill="#F0F0F0"/>
<path d="M76.3326 10.2223C79.5395 10.1992 81.8466 12.5755 81.8466 16.313C81.8466 20.0044 79.5395 22.3576 76.3557 22.3576C75.024 22.3576 73.9973 21.9154 73.2508 21.2294C73.0827 21.075 72.7797 21.1862 72.7797 21.4144V26.4729C72.7797 26.672 72.6183 26.8334 72.4192 26.8334H69.8872C69.6881 26.8334 69.5267 26.672 69.5267 26.4729V10.7212C69.5267 10.5221 69.6881 10.3607 69.8872 10.3607H72.0681C72.2403 10.3607 72.3884 10.4825 72.4217 10.6514L72.583 11.4695C72.6233 11.6736 72.8919 11.7376 73.035 11.5866C73.796 10.7844 74.8855 10.2223 76.3326 10.2223ZM75.6174 19.7045C77.3939 19.7045 78.5475 18.2971 78.5475 16.2669C78.5475 14.2597 77.3939 12.8754 75.6174 12.8754C73.841 12.8754 72.7336 14.2597 72.7336 16.2669C72.7336 18.2971 73.841 19.7045 75.6174 19.7045Z" fill="#F0F0F0"/>
<path d="M49.2766 22.3579C45.3315 22.3579 42.9552 19.9816 42.9552 16.3133C42.9552 12.622 45.3776 10.2226 49.0459 10.2226C52.5989 10.2226 54.9983 12.4374 55.0444 15.9211C55.0444 16.2672 55.0213 16.6594 54.9521 17.0285H46.3466V17.19C46.4158 18.8742 47.5002 19.8893 49.1382 19.8893C50.2657 19.8893 51.1049 19.4654 51.4958 18.6465C51.6146 18.3977 51.8464 18.2052 52.1221 18.2052H54.4371C54.6589 18.2052 54.829 18.4041 54.7743 18.6191C54.2379 20.7291 52.2459 22.3579 49.2766 22.3579ZM46.4963 14.5032C46.4389 14.7133 46.609 14.906 46.8267 14.906H51.3461C51.5677 14.906 51.7387 14.7068 51.6777 14.4937C51.3365 13.3006 50.3995 12.645 49.069 12.645C47.8015 12.645 46.8147 13.3375 46.4963 14.5032Z" fill="#F0F0F0"/>
<path d="M62.3271 22.3579C58.382 22.3579 56.0056 19.9816 56.0056 16.3133C56.0056 12.622 58.4281 10.2226 62.0964 10.2226C65.6494 10.2226 68.0488 12.4374 68.0949 15.9211C68.0949 16.2672 68.0718 16.6594 68.0026 17.0285H59.3971V17.19C59.4663 18.8742 60.5506 19.8893 62.1887 19.8893C63.3162 19.8893 64.1553 19.4654 64.5463 18.6465C64.6651 18.3977 64.8969 18.2052 65.1725 18.2052H67.4876C67.7094 18.2052 67.8795 18.4041 67.8248 18.6191C67.2883 20.7291 65.2964 22.3579 62.3271 22.3579ZM59.5468 14.5032C59.4894 14.7133 59.6595 14.906 59.8772 14.906H64.3966C64.6182 14.906 64.7892 14.7068 64.7282 14.4937C64.387 13.3006 63.4499 12.645 62.1195 12.645C60.852 12.645 59.8652 13.3375 59.5468 14.5032Z" fill="#F0F0F0"/>
<path d="M29.129 22.2455C28.9299 22.2455 28.7686 22.0841 28.7686 21.885V6.45626C28.7686 6.25717 28.9299 6.09577 29.129 6.09577H31.8687C32.0678 6.09577 32.2292 6.25717 32.2292 6.45626V12.7742C32.2292 12.9955 32.5031 13.0992 32.6497 12.9333L38.5098 6.29884C38.6238 6.16972 38.7878 6.09577 38.9601 6.09577H42.0865C42.3973 6.09577 42.5624 6.4629 42.3561 6.69547L37.2222 12.4836C37.04 12.6889 37.0202 12.9915 37.174 13.2189L42.8998 21.683C43.0617 21.9224 42.8902 22.2455 42.6012 22.2455H39.3186C39.1991 22.2455 39.0873 22.1862 39.0202 22.0873L34.7282 15.7555C34.596 15.5604 34.3152 15.5426 34.1594 15.7193L32.3794 17.7378C32.2826 17.8476 32.2292 17.9889 32.2292 18.1352V21.885C32.2292 22.0841 32.0678 22.2455 31.8687 22.2455H29.129Z" fill="#F0F0F0"/>
<path d="M90.1045 9.33638C89.026 9.33638 88.1819 8.51415 88.1819 7.42589C88.1819 6.31345 89.026 5.49121 90.1045 5.49121C91.183 5.49121 92.0271 6.31345 92.0271 7.42589C92.0271 8.51415 91.183 9.33638 90.1045 9.33638Z" fill="#F0F0F0"/>
</g>
</g>
</svg>
