<svg width="24" height="24" viewBox="0 0 24 24" fill="none" xmlns="http://www.w3.org/2000/svg">
<g id="search-filled">
<path id="Vector" d="M21 21L16.2978 16.2978M3.42859 10.2857C3.42859 11.2988 3.62812 12.3019 4.0158 13.2379C4.40348 14.1738 4.97171 15.0242 5.68805 15.7406C6.40439 16.4569 7.25481 17.0251 8.19075 17.4128C9.12669 17.8005 10.1298 18 11.1429 18C12.1559 18 13.1591 17.8005 14.095 17.4128C15.0309 17.0251 15.8814 16.4569 16.5977 15.7406C17.314 15.0242 17.8823 14.1738 18.2699 13.2379C18.6576 12.3019 18.8572 11.2988 18.8572 10.2857C18.8572 9.27267 18.6576 8.26954 18.2699 7.3336C17.8823 6.39766 17.314 5.54724 16.5977 4.8309C15.8814 4.11457 15.0309 3.54634 14.095 3.15866C13.1591 2.77098 12.1559 2.57144 11.1429 2.57144C10.1298 2.57144 9.12669 2.77098 8.19075 3.15866C7.25481 3.54634 6.40439 4.11457 5.68805 4.8309C4.97171 5.54724 4.40348 6.39766 4.0158 7.3336C3.62812 8.26954 3.42859 9.27267 3.42859 10.2857Z" stroke="#1A1A1A" stroke-width="2" stroke-linecap="round" stroke-linejoin="round"/>
</g>
</svg>
