<svg width="24" height="24" viewBox="0 0 24 24" fill="none" xmlns="http://www.w3.org/2000/svg">
<g id="search">
<path id="Vector" d="M21 21.0001L16.2978 16.2979M3.42856 10.2858C3.42856 11.2989 3.62809 12.302 4.01577 13.2379C4.40345 14.1739 4.97168 15.0243 5.68802 15.7406C6.40436 16.457 7.25477 17.0252 8.19072 17.4129C9.12666 17.8006 10.1298 18.0001 11.1428 18.0001C12.1559 18.0001 13.159 17.8006 14.095 17.4129C15.0309 17.0252 15.8813 16.457 16.5977 15.7406C17.314 15.0243 17.8822 14.1739 18.2699 13.2379C18.6576 12.302 18.8571 11.2989 18.8571 10.2858C18.8571 9.27277 18.6576 8.26963 18.2699 7.33369C17.8822 6.39775 17.314 5.54733 16.5977 4.831C15.8813 4.11466 15.0309 3.54643 14.095 3.15875C13.159 2.77107 12.1559 2.57153 11.1428 2.57153C10.1298 2.57153 9.12666 2.77107 8.19072 3.15875C7.25477 3.54643 6.40436 4.11466 5.68802 4.831C4.97168 5.54733 4.40345 6.39775 4.01577 7.33369C3.62809 8.26963 3.42856 9.27277 3.42856 10.2858Z" stroke="#7F7C82" stroke-width="1.5" stroke-linecap="round" stroke-linejoin="round"/>
</g>
</svg>
