<svg width="24" height="24" viewBox="0 0 24 24" fill="none" xmlns="http://www.w3.org/2000/svg">
<g id="tiktok">
<path id="Vector" d="M12.4123 2.51583C13.4494 2.5 14.4785 2.50792 15.5077 2.5C15.571 3.71123 16.0064 4.94622 16.8931 5.80121C17.7797 6.67995 19.0305 7.08369 20.2497 7.21827V10.4087C19.1097 10.3691 17.9618 10.1316 16.9247 9.64074C16.4735 9.43491 16.0539 9.17367 15.6423 8.9045C15.6343 11.2161 15.6502 13.5278 15.6264 15.8315C15.5631 16.9398 15.1989 18.0402 14.5577 18.9506C13.5206 20.4706 11.7236 21.4602 9.87902 21.4918C8.74695 21.5552 7.61489 21.2464 6.64907 20.6764C5.04993 19.7344 3.92578 18.0086 3.75953 16.1561C3.74369 15.7603 3.73578 15.3644 3.75161 14.9765C3.89411 13.4724 4.63826 12.0315 5.79408 11.0499C7.10823 9.90991 8.94487 9.36366 10.6628 9.68824C10.6786 10.8599 10.6311 12.0315 10.6311 13.2032C9.84735 12.9499 8.92903 13.0211 8.24029 13.4961C7.74155 13.8207 7.36156 14.3194 7.16364 14.8815C6.9974 15.2853 7.04489 15.7286 7.05281 16.1561C7.24281 17.4544 8.49362 18.5469 9.8236 18.4281C10.7103 18.4202 11.5573 17.9056 12.0165 17.1536C12.1669 16.8923 12.3331 16.6232 12.3411 16.3144C12.4202 14.8973 12.3886 13.4882 12.3965 12.0711C12.4044 8.88075 12.3886 5.69829 12.4123 2.51583Z" fill="#7F7C82"/>
</g>
</svg>
