<svg width="24" height="24" viewBox="0 0 24 24" fill="none" xmlns="http://www.w3.org/2000/svg">
<g id="user-circle-filled">
<g id="Subtract">
<path d="M10.1735 7.9511C10.658 7.46663 11.3151 7.19446 12.0002 7.19446C12.6854 7.19446 13.3424 7.46663 13.8269 7.9511C14.3114 8.43557 14.5836 9.09265 14.5836 9.77779C14.5836 10.4629 14.3114 11.12 13.8269 11.6045C13.3424 12.089 12.6854 12.3611 12.0002 12.3611C11.3151 12.3611 10.658 12.089 10.1735 11.6045C9.68906 11.12 9.41689 10.4629 9.41689 9.77779C9.41689 9.09265 9.68906 8.43557 10.1735 7.9511Z" fill="#1A1A1A"/>
<path fill-rule="evenodd" clip-rule="evenodd" d="M19.3118 19.8804C21.4267 17.9172 22.75 15.1132 22.75 12C22.75 6.06294 17.9371 1.25 12 1.25C6.06294 1.25 1.25 6.06294 1.25 12C1.25 15.1136 2.57375 17.9181 4.68917 19.8813L4.78892 19.4434C4.79269 19.4269 4.79702 19.4105 4.8019 19.3942C5.12332 18.3244 5.78102 17.3868 6.67742 16.7203C7.57376 16.0539 8.66103 15.6942 9.77796 15.6945H14.2221C15.3405 15.6941 16.4293 16.0547 17.3263 16.7227C18.2234 17.3907 18.8809 18.3304 19.201 19.402C19.2057 19.4178 19.2099 19.4338 19.2136 19.4499L19.3118 19.8804ZM12.0002 5.69446C10.9173 5.69446 9.87864 6.12466 9.11286 6.89044C8.34709 7.65621 7.91688 8.69482 7.91688 9.77779C7.91688 10.8608 8.34709 11.8994 9.11286 12.6651C9.87864 13.4309 10.9173 13.8611 12.0002 13.8611C13.0832 13.8611 14.1218 13.4309 14.8876 12.6651C15.6533 11.8994 16.0836 10.8608 16.0836 9.77779C16.0836 8.69482 15.6533 7.65621 14.8876 6.89044C14.1218 6.12467 13.0832 5.69446 12.0002 5.69446Z" fill="#1A1A1A"/>
<path d="M18.0093 20.9148L17.757 19.8088C17.5268 19.056 17.0621 18.3962 16.4305 17.9258C15.7924 17.4507 15.0181 17.1942 14.2227 17.1945H9.77796C8.98351 17.1942 8.20993 17.4501 7.57239 17.9241C6.94134 18.3933 6.47662 19.0514 6.24553 19.8026L5.99197 20.9157C7.70721 22.0738 9.77464 22.75 12 22.75C14.2259 22.75 16.2938 22.0735 18.0093 20.9148Z" fill="#1A1A1A"/>
</g>
</g>
</svg>
