<svg width="24" height="24" viewBox="0 0 24 24" fill="none" xmlns="http://www.w3.org/2000/svg">
<g id="user-circle">
<path id="Vector" d="M5.51997 19.61C5.79498 18.6947 6.35771 17.8924 7.12468 17.3222C7.89166 16.752 8.82202 16.4442 9.77774 16.4444H14.2222C15.1791 16.4441 16.1106 16.7527 16.8782 17.3242C17.6457 17.8957 18.2083 18.6998 18.4822 19.6167M2 12C2 13.3132 2.25866 14.6136 2.7612 15.8268C3.26375 17.0401 4.00035 18.1425 4.92893 19.0711C5.85752 19.9997 6.95991 20.7363 8.17317 21.2388C9.38642 21.7413 10.6868 22 12 22C13.3132 22 14.6136 21.7413 15.8268 21.2388C17.0401 20.7363 18.1425 19.9997 19.0711 19.0711C19.9997 18.1425 20.7363 17.0401 21.2388 15.8268C21.7413 14.6136 22 13.3132 22 12C22 10.6868 21.7413 9.38642 21.2388 8.17317C20.7363 6.95991 19.9997 5.85752 19.0711 4.92893C18.1425 4.00035 17.0401 3.26375 15.8268 2.7612C14.6136 2.25866 13.3132 2 12 2C10.6868 2 9.38642 2.25866 8.17317 2.7612C6.95991 3.26375 5.85752 4.00035 4.92893 4.92893C4.00035 5.85752 3.26375 6.95991 2.7612 8.17317C2.25866 9.38642 2 10.6868 2 12ZM8.66667 9.77778C8.66667 10.6618 9.01786 11.5097 9.64298 12.1348C10.2681 12.7599 11.1159 13.1111 12 13.1111C12.8841 13.1111 13.7319 12.7599 14.357 12.1348C14.9821 11.5097 15.3333 10.6618 15.3333 9.77778C15.3333 8.89372 14.9821 8.04588 14.357 7.42076C13.7319 6.79563 12.8841 6.44444 12 6.44444C11.1159 6.44444 10.2681 6.79563 9.64298 7.42076C9.01786 8.04588 8.66667 8.89372 8.66667 9.77778Z" stroke="#7F7C82" stroke-width="1.5" stroke-linecap="round" stroke-linejoin="round"/>
</g>
</svg>
