<svg width="24" height="24" viewBox="0 0 24 24" fill="none" xmlns="http://www.w3.org/2000/svg">
<g id="youtube">
<path id="Vector" d="M21.1033 7.40853C20.9932 7.01395 20.7832 6.65445 20.4935 6.36478C20.2038 6.0751 19.8443 5.86505 19.4497 5.75493C17.9688 5.35817 12.0085 5.35817 12.0085 5.35817C12.0085 5.35817 6.0632 5.35025 4.56719 5.75493C4.1726 5.86505 3.8131 6.0751 3.52342 6.36478C3.23375 6.65445 3.0237 7.01395 2.91357 7.40853C2.63284 8.92473 2.49444 10.4638 2.50017 12.0058C2.49552 13.5419 2.63392 15.0752 2.91357 16.5857C3.0237 16.9802 3.23375 17.3397 3.52342 17.6294C3.8131 17.9191 4.1726 18.1291 4.56719 18.2393C6.04657 18.6368 12.0085 18.6368 12.0085 18.6368C12.0085 18.6368 17.9529 18.6368 19.4497 18.2393C19.8443 18.1291 20.2038 17.9191 20.4935 17.6294C20.7832 17.3397 20.9932 16.9802 21.1033 16.5857C21.3771 15.0746 21.5097 13.5414 21.4993 12.0058C21.5108 10.4644 21.3782 8.92528 21.1033 7.40853ZM10.1062 14.8497V9.1532L15.067 12.0058L10.1062 14.8497Z" fill="#7F7C82"/>
</g>
</svg>
